<svg xmlns="http://www.w3.org/2000/svg" viewBox="0 0 293.7 156.76"><defs><style>.cls-1,.cls-10,.cls-3{fill:none;}.cls-1,.cls-10,.cls-2{stroke:#000;}.cls-1{stroke-width:1.96px;}.cls-2{fill:#fff;stroke-miterlimit:10;stroke-width:2px;}.cls-10,.cls-4,.cls-5,.cls-8{isolation:isolate;}.cls-5{font-size:25px;font-family:CooperBlack, Cooper Black;}.cls-6{letter-spacing:-0.05em;}.cls-7{letter-spacing:0.01em;}.cls-10,.cls-8{font-size:34px;font-family:AmericanTypewriter, American Typewriter;letter-spacing:0.01em;}.cls-9{letter-spacing:0em;}.cls-10{stroke-width:0.5px;}</style></defs><title>fish-and-chips-logo</title><g id="Layer_2" data-name="Layer 2"><g id="Layer_1-2" data-name="Layer 1"><path class="cls-1" d="M145.48,155.78c-13.1,0-25.2-4.6-33.1-12.5-15.4-2.6-30-7-42.3-13H23.68v-17.8C9.88,106,1,92.48,1,77.88s9-28.1,22.7-34.6V26.48h46.4a161.91,161.91,0,0,1,42.4-13c7.9-7.8,20.1-12.5,33.1-12.5s25.4,4.7,33.3,12.6a160.05,160.05,0,0,1,41.5,12.8h46.4V44c13.1,6.8,21.4,19.7,21.4,34s-8.3,27.2-21.4,34v18.5h-46.4a160,160,0,0,1-41.5,12.8C170.88,151.08,158.58,155.78,145.48,155.78Z" transform="translate(1.42)"/><path class="cls-2" d="M280.88,78a33.42,33.42,0,0,0-21.4-30.9V32h-41.3c-12.4-6.2-27.2-10.8-43.6-13.4-6.2-7.2-16.9-12-29-12s-22.7,4.7-28.9,11.9C100,21,84.78,25.68,72.18,32H30.88v14.6A33.43,33.43,0,0,0,8.18,78c0,14.4,9.5,26.7,22.7,31.4V125h41.3a149.28,149.28,0,0,0,44.4,13.5c6.2,7.2,16.9,11.9,28.9,11.9s22.9-4.8,29-12c16.4-2.6,31.2-7.2,43.6-13.4h41.4v-16.1C272,103.78,280.88,91.88,280.88,78Z" transform="translate(1.42)"/><rect class="cls-3" y="44.08" width="293.7" height="105.7"/><g class="cls-4"><text class="cls-5" transform="translate(88.33 60.81)"><tspan class="cls-6">F</tspan><tspan x="15.27" y="0">air</tspan><tspan class="cls-7" x="51.72" y="0">F</tspan><tspan x="68.52" y="0">ield</tspan></text><text class="cls-8" transform="translate(43.93 101.61)">F<tspan class="cls-9" x="21.49" y="0">ish &amp; Chips</tspan></text><text class="cls-10" transform="translate(43.93 101.61)">F<tspan class="cls-9" x="21.49" y="0">ish &amp; Chips</tspan></text></g></g></g></svg>